# xmcd CD database file
# Copyright (C) 1994 Ti Kan
#
# Track frame offsets:
#	183
#	9053
#	17395
#	28640
#	41455
#	50280
#	57875
#	69703
#	80013
#	87560
#	97538
#	107635
#	119830
#	128865
#	139465
#	148598
#	156403
#	166020
#	174853
#	182658
#
# Disc length: 2577 seconds
#
# Revision: 1
# Processed by: cddbd v1.4b41PL1 Copyright (c) Steve Scherf et al.
# Submitted via: xmcd 1.3
#
DISCID=000a0f14
DTITLE=Jim Reevers - Live At The Opry
DYEAR=1900
DGENRE=
TTITLE0=Young Comes A Sucker
TTITLE1=Waitting For Train
TTITLE2=Am I Losing You
TTITLE3=When God Dips His Love In My Heart
TTITLE4=According To My Heart
TTITLE5=Bimbo
TTITLE6=Mexican Joe
TTITLE7=Anna Marie
TTITLE8=Blue Boy 
TTITLE9=Softly And Tenderly
TTITLE10=He'll Have To Go
TTITLE11=Four Walls
TTITLE12=I'd Like To be
TTITLE13=Peace In The Valley 
TTITLE14=Billy Bayou
TTITLE15=In A Mansion Stands My Love
TTITLE16=I'm Getting Better
TTITLE17=(Gimme That) Old Time Religion
TTITLE18=I Know One
TTITLE19=I Missed Me
EXTD=
EXTT0=
EXTT1=
EXTT2=
EXTT3=
EXTT4=
EXTT5=
EXTT6=
EXTT7=
EXTT8=
EXTT9=
EXTT10=
EXTT11=
EXTT12=
EXTT13=
EXTT14=
EXTT15=
EXTT16=
EXTT17=
EXTT18=
EXTT19=
PLAYORDER=
